<svg id="visual" viewBox="0 0 900 450" width="900" height="450" xmlns="http://www.w3.org/2000/svg" xmlns:xlink="http://www.w3.org/1999/xlink" version="1.1"><rect x="0" y="0" width="900" height="450" fill="#140021"></rect><path d="M0 210L129 210L129 271L257 271L257 246L386 246L386 253L514 253L514 229L643 229L643 282L771 282L771 209L900 209L900 209L900 451L900 451L771 451L771 451L643 451L643 451L514 451L514 451L386 451L386 451L257 451L257 451L129 451L129 451L0 451Z" fill="#7300ff"></path><path d="M0 273L129 273L129 295L257 295L257 261L386 261L386 277L514 277L514 272L643 272L643 305L771 305L771 348L900 348L900 261L900 451L900 451L771 451L771 451L643 451L643 451L514 451L514 451L386 451L386 451L257 451L257 451L129 451L129 451L0 451Z" fill="#6500bf"></path><path d="M0 364L129 364L129 402L257 402L257 348L386 348L386 396L514 396L514 355L643 355L643 382L771 382L771 355L900 355L900 383L900 451L900 451L771 451L771 451L643 451L643 451L514 451L514 451L386 451L386 451L257 451L257 451L129 451L129 451L0 451Z" fill="#500384"></path></svg>